<?xml version="1.0" encoding="utf-8"?>
<!-- Generator: Adobe Illustrator 18.0.0, SVG Export Plug-In . SVG Version: 6.00 Build 0)  -->
<!DOCTYPE svg PUBLIC "-//W3C//DTD SVG 1.1//EN" "http://www.w3.org/Graphics/SVG/1.1/DTD/svg11.dtd">
<svg version="1.1" id="Ebene_1" xmlns="http://www.w3.org/2000/svg" xmlns:xlink="http://www.w3.org/1999/xlink" x="0px" y="0px"
	 width="501.7px" height="187.3px" viewBox="0 0 501.7 187.3" enable-background="new 0 0 501.7 187.3" xml:space="preserve">
<g>
	<path fill="#000204" d="M492.4,106c0.5,0.5,1,0.7,1.6,0.7s1.2-0.2,1.6-0.7c0.5-0.5,0.7-1,0.7-1.6s-0.2-1.2-0.7-1.6
		c-0.5-0.5-1-0.7-1.6-0.7s-1.2,0.2-1.6,0.7c-0.5,0.5-0.7,1-0.7,1.6S491.9,105.5,492.4,106 M486.3,102.1h-4.5V81.5
		c0-0.3-0.2-0.5-0.5-0.5H478c-0.3,0-0.5,0.2-0.5,0.5v24.4c0,0.3,0.2,0.5,0.5,0.5h3.2h0h0.1h4.9c0.3,0,0.5-0.2,0.5-0.5v-3.2
		C486.8,102.3,486.6,102.1,486.3,102.1 M467.8,106c0.5,0.5,1,0.7,1.6,0.7c0.6,0,1.2-0.2,1.6-0.7c0.5-0.5,0.7-1,0.7-1.6
		s-0.2-1.2-0.7-1.6c-0.5-0.5-1-0.7-1.6-0.7c-0.6,0-1.2,0.2-1.6,0.7c-0.5,0.5-0.7,1-0.7,1.6S467.3,105.5,467.8,106 M457.5,80.8h-1.4
		c-0.6,0-1.2,0.1-1.8,0.4c-0.6,0.2-1,0.6-1.5,1c-0.4,0.4-0.7,0.9-1,1.5c-0.2,0.6-0.4,1.1-0.4,1.8v4.4c0,0.6,0.1,1,0.2,1.3
		c0.2,0.3,0.4,0.7,0.8,1l4.7,3.6c0.2,0.2,0.4,0.4,0.4,0.7c0.1,0.2,0.1,0.5,0.1,0.8v4.8c0,0.2-0.1,0.4-0.3,0.6
		c-0.2,0.2-0.4,0.3-0.6,0.3h-0.3c-0.2,0-0.4-0.1-0.6-0.3c-0.2-0.2-0.3-0.4-0.3-0.6v-4.5c0-0.3-0.2-0.5-0.5-0.4l-3.3,0.9
		c-0.3,0.1-0.5,0.3-0.5,0.7v3.5c0,0.6,0.1,1.2,0.4,1.8c0.2,0.6,0.6,1,1,1.5c0.4,0.4,0.9,0.7,1.5,1c0.6,0.2,1.1,0.4,1.8,0.4h1.4
		c0.6,0,1.2-0.1,1.8-0.4c0.6-0.2,1-0.6,1.5-1c0.4-0.4,0.7-0.9,1-1.5c0.2-0.6,0.4-1.1,0.4-1.8v-6.2c0-0.4-0.1-0.8-0.2-1.2
		c-0.1-0.3-0.4-0.7-0.7-1l-4.7-3.6c-0.2-0.2-0.3-0.4-0.4-0.6c-0.1-0.2-0.1-0.4-0.1-0.7v-3.3c0-0.2,0.1-0.4,0.3-0.6
		c0.2-0.2,0.4-0.3,0.6-0.3h0.3c0.2,0,0.4,0.1,0.6,0.3c0.2,0.2,0.3,0.4,0.3,0.6v2.4c0,0.3,0.2,0.5,0.5,0.4l3.3-0.9
		c0.3-0.1,0.5-0.3,0.5-0.7v-1.4c0-0.6-0.1-1.2-0.4-1.8c-0.2-0.6-0.6-1-1-1.5c-0.4-0.4-0.9-0.7-1.5-1
		C458.7,80.9,458.1,80.8,457.5,80.8 M437.2,102.1H433v-7.4h3.6c0.3,0,0.5-0.2,0.5-0.5V91c0-0.3-0.2-0.5-0.5-0.5H433v-5.2h4.1
		c0.3,0,0.5-0.2,0.5-0.5v-3.2c0-0.3-0.2-0.5-0.5-0.5h-7.9c-0.3,0-0.5,0.2-0.5,0.5v24.4c0,0.3,0.2,0.5,0.5,0.5h7.9
		c0.3,0,0.5-0.2,0.5-0.5v-3.2C437.7,102.3,437.5,102.1,437.2,102.1 M418.2,80.8h-1.4c-0.6,0-1.2,0.1-1.8,0.4s-1,0.6-1.5,1
		c-0.4,0.4-0.7,0.9-1,1.5s-0.4,1.1-0.4,1.8v16.8c0,0.6,0.1,1.2,0.4,1.8c0.2,0.6,0.6,1,1,1.5c0.4,0.4,0.9,0.7,1.5,1
		c0.6,0.2,1.1,0.4,1.8,0.4h1.4c0.6,0,1.2-0.1,1.8-0.4c0.6-0.2,1-0.6,1.5-1c0.4-0.4,0.7-0.9,1-1.5c0.2-0.6,0.4-1.1,0.4-1.8v-4.5
		c0-0.3-0.2-0.6-0.5-0.7l-3.3-0.4c-0.3-0.1-0.5,0-0.5,0.4v5.1c0,0.2-0.1,0.4-0.3,0.6s-0.4,0.3-0.6,0.3h-0.3c-0.2,0-0.4-0.1-0.6-0.3
		s-0.3-0.4-0.3-0.6V85.5c0-0.2,0.1-0.4,0.3-0.6s0.4-0.3,0.6-0.3h0.3c0.2,0,0.4,0.1,0.6,0.3s0.3,0.4,0.3,0.6V89
		c0,0.3,0.2,0.5,0.5,0.4l3.3-0.5c0.3-0.1,0.5-0.3,0.5-0.7v-2.9c0-0.6-0.1-1.2-0.4-1.8s-0.6-1-1-1.5c-0.4-0.4-0.9-0.7-1.5-1
		S418.9,80.8,418.2,80.8 M406.1,81.5c0-0.3-0.2-0.5-0.5-0.5h-3.2c-0.3,0-0.5,0.2-0.5,0.5v24.4c0,0.3,0.2,0.5,0.5,0.5h3.2
		c0.3,0,0.5-0.2,0.5-0.5V81.5z M396.1,81h-3.9c-0.3,0-0.5,0.2-0.5,0.5l-1.5,15.4h-0.1l-1.5-15.4c0-0.3-0.2-0.5-0.5-0.5h-3.9
		c-0.3,0-0.5,0.2-0.4,0.5l4.3,24.4c0,0.3,0.2,0.5,0.6,0.5h3.2c0.3,0,0.5-0.2,0.6-0.5l4.3-24.4C396.6,81.2,396.5,81,396.1,81
		 M372.2,84.9h1.2c0.2,0,0.4,0.1,0.6,0.3c0.2,0.2,0.3,0.4,0.3,0.6v5.5c0,0.2-0.1,0.4-0.3,0.6c-0.2,0.2-0.4,0.3-0.6,0.3h-1.2V84.9z
		 M376,95.5c0.8-0.4,1.4-0.9,1.8-1.6c0.5-0.7,0.7-1.5,0.7-2.4v-5.9c0-0.6-0.1-1.2-0.4-1.8c-0.2-0.6-0.6-1-1-1.5
		c-0.4-0.4-0.9-0.7-1.5-1c-0.6-0.2-1.1-0.4-1.8-0.4h-5.4c-0.3,0-0.5,0.2-0.5,0.5v24.4c0,0.3,0.2,0.5,0.5,0.5h3.2
		c0.3,0,0.4-0.1,0.5-0.4l0,0.4V97l2.6,8.9c0,0.1,0.1,0.3,0.3,0.4c0.1,0.1,0.3,0.1,0.4,0.1h3.3c0.3,0,0.4-0.2,0.4-0.5L376,95.5z
		 M361.2,102.1H357v-7.4h3.6c0.3,0,0.5-0.2,0.5-0.5V91c0-0.3-0.2-0.5-0.5-0.5H357v-5.2h4.1c0.3,0,0.5-0.2,0.5-0.5v-3.2
		c0-0.3-0.2-0.5-0.5-0.5h-7.9c-0.3,0-0.5,0.2-0.5,0.5v24.4c0,0.3,0.2,0.5,0.5,0.5h7.9c0.3,0,0.5-0.2,0.5-0.5v-3.2
		C361.7,102.3,361.5,102.1,361.2,102.1 M342.2,80.8h-1.4c-0.6,0-1.2,0.1-1.8,0.4c-0.6,0.2-1,0.6-1.5,1c-0.4,0.4-0.7,0.9-1,1.5
		c-0.2,0.6-0.4,1.1-0.4,1.8v4.4c0,0.6,0.1,1,0.2,1.3c0.2,0.3,0.4,0.7,0.8,1l4.7,3.6c0.2,0.2,0.4,0.4,0.4,0.7
		c0.1,0.2,0.1,0.5,0.1,0.8v4.8c0,0.2-0.1,0.4-0.3,0.6c-0.2,0.2-0.4,0.3-0.6,0.3h-0.3c-0.2,0-0.4-0.1-0.6-0.3
		c-0.2-0.2-0.3-0.4-0.3-0.6v-4.5c0-0.3-0.2-0.5-0.5-0.4l-3.3,0.9c-0.3,0.1-0.5,0.3-0.5,0.7v3.5c0,0.6,0.1,1.2,0.4,1.8
		c0.2,0.6,0.6,1,1,1.5c0.4,0.4,0.9,0.7,1.5,1c0.6,0.2,1.1,0.4,1.8,0.4h1.4c0.6,0,1.2-0.1,1.8-0.4c0.6-0.2,1-0.6,1.5-1
		c0.4-0.4,0.7-0.9,1-1.5c0.2-0.6,0.4-1.1,0.4-1.8v-6.2c0-0.4-0.1-0.8-0.2-1.2c-0.1-0.3-0.4-0.7-0.7-1l-4.7-3.6
		c-0.2-0.2-0.3-0.4-0.4-0.6c-0.1-0.2-0.1-0.4-0.1-0.7v-3.3c0-0.2,0.1-0.4,0.3-0.6c0.2-0.2,0.4-0.3,0.6-0.3h0.3
		c0.2,0,0.4,0.1,0.6,0.3c0.2,0.2,0.3,0.4,0.3,0.6v2.4c0,0.3,0.2,0.5,0.5,0.4l3.3-0.9c0.3-0.1,0.5-0.3,0.5-0.7v-1.4
		c0-0.6-0.1-1.2-0.4-1.8c-0.2-0.6-0.6-1-1-1.5c-0.4-0.4-0.9-0.7-1.5-1C343.4,80.9,342.9,80.8,342.2,80.8 M324.6,102.1h-4.5V81.5
		c0-0.3-0.2-0.5-0.5-0.5h-3.2c-0.3,0-0.5,0.2-0.5,0.5v24.4c0,0.3,0.2,0.5,0.5,0.5h3.2h0h0.1h4.9c0.3,0,0.5-0.2,0.5-0.5v-3.2
		C325.2,102.3,325,102.1,324.6,102.1 M303.5,97.9l0.7-9.8h0.3l0.7,9.8H303.5z M307.3,81.5c0-0.3-0.2-0.5-0.6-0.5H302
		c-0.3,0-0.5,0.2-0.6,0.5l-2.7,24.4c0,0.3,0.1,0.5,0.4,0.5h3.3c0.3,0,0.5-0.2,0.5-0.5l0.3-3.9h2.2l0.3,3.9c0,0.3,0.2,0.5,0.5,0.5
		h3.3c0.3,0,0.5-0.2,0.4-0.5L307.3,81.5z M286.9,84.9h1.2c0.2,0,0.4,0.1,0.6,0.3c0.2,0.2,0.3,0.4,0.3,0.6v5.5c0,0.2-0.1,0.4-0.3,0.6
		c-0.2,0.2-0.4,0.3-0.6,0.3h-1.2V84.9z M290.7,95.5c0.8-0.4,1.4-0.9,1.8-1.6c0.5-0.7,0.7-1.5,0.7-2.4v-5.9c0-0.6-0.1-1.2-0.4-1.8
		c-0.2-0.6-0.6-1-1-1.5c-0.4-0.4-0.9-0.7-1.5-1c-0.6-0.2-1.1-0.4-1.8-0.4h-5.4c-0.3,0-0.5,0.2-0.5,0.5v24.4c0,0.3,0.2,0.5,0.5,0.5
		h3.2c0.3,0,0.4-0.1,0.5-0.4l0,0.4V97l2.6,8.9c0,0.1,0.1,0.3,0.3,0.4c0.1,0.1,0.3,0.1,0.4,0.1h3.3c0.3,0,0.4-0.2,0.4-0.5L290.7,95.5
		z M275.8,102.1h-4.1v-7.4h3.6c0.3,0,0.5-0.2,0.5-0.5V91c0-0.3-0.2-0.5-0.5-0.5h-3.6v-5.2h4.1c0.3,0,0.5-0.2,0.5-0.5v-3.2
		c0-0.3-0.2-0.5-0.5-0.5h-7.9c-0.3,0-0.5,0.2-0.5,0.5v24.4c0,0.3,0.2,0.5,0.5,0.5h7.9c0.3,0,0.5-0.2,0.5-0.5v-3.2
		C276.3,102.3,276.1,102.1,275.8,102.1 M260.4,81h-3.2c-0.3,0-0.5,0.2-0.5,0.5v11.6l-3.8-11.6c0-0.1-0.1-0.2-0.3-0.3
		c-0.1-0.1-0.3-0.1-0.4-0.1h-2.4c-0.3,0-0.5,0.2-0.5,0.5v24.4c0,0.3,0.2,0.5,0.5,0.5h3.2c0.3,0,0.5-0.2,0.5-0.5v-12l3.8,12
		c0,0.1,0.1,0.2,0.3,0.3c0.1,0.1,0.3,0.1,0.4,0.1h2.3c0.3,0,0.5-0.2,0.5-0.5V81.5C260.9,81.2,260.7,81,260.4,81 M242.6,102.1h-4.1
		v-7.4h3.6c0.3,0,0.5-0.2,0.5-0.5V91c0-0.3-0.2-0.5-0.5-0.5h-3.6v-5.2h4.1c0.3,0,0.5-0.2,0.5-0.5v-3.2c0-0.3-0.2-0.5-0.5-0.5h-7.9
		c-0.3,0-0.5,0.2-0.5,0.5v24.4c0,0.3,0.2,0.5,0.5,0.5h7.9c0.3,0,0.5-0.2,0.5-0.5v-3.2C243.1,102.3,243,102.1,242.6,102.1
		 M223.5,80.8h-1.4c-0.6,0-1.2,0.1-1.8,0.4s-1,0.6-1.5,1c-0.4,0.4-0.7,0.9-1,1.5c-0.2,0.6-0.4,1.1-0.4,1.8v16.8
		c0,0.6,0.1,1.2,0.4,1.8c0.2,0.6,0.6,1,1,1.5s0.9,0.7,1.5,1c0.6,0.2,1.1,0.4,1.8,0.4h1.4c0.6,0,1.2-0.1,1.8-0.4c0.6-0.2,1-0.6,1.5-1
		s0.7-0.9,1-1.5c0.2-0.6,0.4-1.1,0.4-1.8V91.8c0-0.3-0.2-0.5-0.5-0.5h-4.7v4.1h1v6.5c0,0.2-0.1,0.4-0.3,0.6
		c-0.2,0.2-0.4,0.3-0.6,0.3h-0.3c-0.2,0-0.4-0.1-0.6-0.3c-0.2-0.2-0.3-0.4-0.3-0.6V85.5c0-0.2,0.1-0.4,0.3-0.6
		c0.2-0.2,0.4-0.3,0.6-0.3h0.3c0.2,0,0.4,0.1,0.6,0.3c0.2,0.2,0.3,0.4,0.3,0.6V88c0,0.3,0.2,0.5,0.5,0.4l3.3-1.2
		c0.3-0.1,0.5-0.3,0.5-0.7v-1.2c0-0.6-0.1-1.2-0.4-1.8s-0.6-1-1-1.5c-0.4-0.4-0.9-0.7-1.5-1S224.2,80.8,223.5,80.8"/>
	<path fill="#99042E" d="M495.5,122.4h-1.6v-2.9h1.4c0.1,0,0.2-0.1,0.2-0.2V118c0-0.1-0.1-0.2-0.2-0.2h-1.4v-2.1h1.6
		c0.1,0,0.2-0.1,0.2-0.2v-1.3c0-0.1-0.1-0.2-0.2-0.2h-3.1c-0.1,0-0.2,0.1-0.2,0.2v9.7c0,0.1,0.1,0.2,0.2,0.2h3.1
		c0.1,0,0.2-0.1,0.2-0.2v-1.3C495.7,122.5,495.6,122.4,495.5,122.4 M485.4,113.9h-0.5c-0.2,0-0.5,0-0.7,0.1
		c-0.2,0.1-0.4,0.2-0.6,0.4c-0.2,0.2-0.3,0.4-0.4,0.6c-0.1,0.2-0.1,0.5-0.1,0.7v6.6c0,0.2,0,0.5,0.1,0.7c0.1,0.2,0.2,0.4,0.4,0.6
		c0.2,0.2,0.4,0.3,0.6,0.4c0.2,0.1,0.5,0.1,0.7,0.1h0.5c0.2,0,0.5,0,0.7-0.1c0.2-0.1,0.4-0.2,0.6-0.4c0.2-0.2,0.3-0.4,0.4-0.6
		c0.1-0.2,0.1-0.5,0.1-0.7v-1.8c0-0.1-0.1-0.2-0.2-0.3l-1.3-0.2c-0.1,0-0.2,0-0.2,0.1v2c0,0.1,0,0.2-0.1,0.2
		c-0.1,0.1-0.1,0.1-0.2,0.1h-0.1c-0.1,0-0.2,0-0.2-0.1c-0.1-0.1-0.1-0.1-0.1-0.2v-6.5c0-0.1,0-0.2,0.1-0.2s0.1-0.1,0.2-0.1h0.1
		c0.1,0,0.2,0,0.2,0.1s0.1,0.1,0.1,0.2v1.4c0,0.1,0.1,0.2,0.2,0.1l1.3-0.2c0.1,0,0.2-0.1,0.2-0.3v-1.2c0-0.2,0-0.5-0.1-0.7
		c-0.1-0.2-0.2-0.4-0.4-0.6c-0.2-0.2-0.4-0.3-0.6-0.4C485.9,114,485.6,113.9,485.4,113.9 M477.8,114h-1.3c-0.1,0-0.2,0.1-0.2,0.2
		v4.6l-1.5-4.6c0,0-0.1-0.1-0.1-0.1c-0.1,0-0.1-0.1-0.2-0.1h-0.9c-0.1,0-0.2,0.1-0.2,0.2v9.7c0,0.1,0.1,0.2,0.2,0.2h1.3
		c0.1,0,0.2-0.1,0.2-0.2v-4.7l1.5,4.8c0,0,0.1,0.1,0.1,0.1c0.1,0,0.1,0.1,0.2,0.1h0.9c0.1,0,0.2-0.1,0.2-0.2v-9.7
		C478,114.1,477.9,114,477.8,114 M466,120.7l0.3-3.9h0.1l0.3,3.9H466z M467.5,114.2c0-0.1-0.1-0.2-0.2-0.2h-1.9
		c-0.1,0-0.2,0.1-0.2,0.2l-1.1,9.7c0,0.1,0,0.2,0.2,0.2h1.3c0.1,0,0.2-0.1,0.2-0.2l0.1-1.6h0.9l0.1,1.6c0,0.1,0.1,0.2,0.2,0.2h1.3
		c0.1,0,0.2-0.1,0.2-0.2L467.5,114.2z M459,114h-1.3c-0.1,0-0.2,0.1-0.2,0.2v4.6l-1.5-4.6c0,0-0.1-0.1-0.1-0.1
		c-0.1,0-0.1-0.1-0.2-0.1h-0.9c-0.1,0-0.2,0.1-0.2,0.2v9.7c0,0.1,0.1,0.2,0.2,0.2h1.3c0.1,0,0.2-0.1,0.2-0.2v-4.7l1.5,4.8
		c0,0,0.1,0.1,0.1,0.1c0.1,0,0.1,0.1,0.2,0.1h0.9c0.1,0,0.2-0.1,0.2-0.2v-9.7C459.2,114.1,459.1,114,459,114 M449.4,122.4h-1.6v-2.9
		h1.4c0.1,0,0.2-0.1,0.2-0.2V118c0-0.1-0.1-0.2-0.2-0.2h-1.4v-2.1h1.6c0.1,0,0.2-0.1,0.2-0.2v-1.3c0-0.1-0.1-0.2-0.2-0.2h-3.1
		c-0.1,0-0.2,0.1-0.2,0.2v9.7c0,0.1,0.1,0.2,0.2,0.2h3.1c0.1,0,0.2-0.1,0.2-0.2v-1.3C449.6,122.5,449.5,122.4,449.4,122.4 M441,114
		h-3.7c-0.1,0-0.2,0.1-0.2,0.2v1.3c0,0.1,0.1,0.2,0.2,0.2h1v8.2c0,0.1,0,0.1,0.1,0.1c0,0,0.1,0.1,0.1,0.1h1.3c0.1,0,0.2-0.1,0.2-0.2
		v-8.2h1c0.1,0,0.2-0.1,0.2-0.2v-1.3C441.2,114.1,441.1,114,441,114 M432,114h-1.3c-0.1,0-0.2,0.1-0.2,0.2v4.6l-1.5-4.6
		c0,0-0.1-0.1-0.1-0.1c-0.1,0-0.1-0.1-0.2-0.1h-0.9c-0.1,0-0.2,0.1-0.2,0.2v9.7c0,0.1,0.1,0.2,0.2,0.2h1.3c0.1,0,0.2-0.1,0.2-0.2
		v-4.7l1.5,4.8c0,0,0.1,0.1,0.1,0.1c0.1,0,0.1,0.1,0.2,0.1h0.9c0.1,0,0.2-0.1,0.2-0.2v-9.7C432.2,114.1,432.1,114,432,114
		 M422.4,114.2c0-0.1-0.1-0.2-0.2-0.2h-1.3c-0.1,0-0.2,0.1-0.2,0.2v9.7c0,0.1,0.1,0.2,0.2,0.2h1.3c0.1,0,0.2-0.1,0.2-0.2V114.2z
		 M413.3,120.7l0.3-3.9h0.1l0.3,3.9H413.3z M414.8,114.2c0-0.1-0.1-0.2-0.2-0.2h-1.9c-0.1,0-0.2,0.1-0.2,0.2l-1.1,9.7
		c0,0.1,0,0.2,0.2,0.2h1.3c0.1,0,0.2-0.1,0.2-0.2l0.1-1.6h0.9l0.1,1.6c0,0.1,0.1,0.2,0.2,0.2h1.3c0.1,0,0.2-0.1,0.2-0.2L414.8,114.2
		z M406.3,114h-1.2c-0.1,0-0.1,0-0.2,0.1c0,0-0.1,0.1-0.1,0.1l-1.1,5.1l-1.1-5.1c0,0-0.1-0.1-0.1-0.1c0,0-0.1-0.1-0.2-0.1h-1.2
		c-0.1,0-0.2,0.1-0.2,0.2v9.7c0,0.1,0.1,0.2,0.2,0.2h1.4c0.1,0,0.2-0.1,0.2-0.2v-4.5l0.9,3.7c0,0,0,0.1,0.1,0.1c0,0,0.1,0,0.1-0.1
		l0.9-3.7v4.5c0,0.1,0.1,0.2,0.2,0.2h1.4c0.1,0,0.2-0.1,0.2-0.2v-9.7C406.5,114.1,406.5,114,406.3,114 M389.9,120.6l-2.1-0.5
		c-0.1,0-0.1,0-0.1,0.1v2.1c0,0.1,0,0.2-0.1,0.2c-0.1,0.1-0.1,0.1-0.2,0.1h-0.1c-0.1,0-0.2,0-0.2-0.1c-0.1-0.1-0.1-0.1-0.1-0.2v-2.5
		c0-0.1,0-0.2,0-0.2s0-0.1,0.1-0.2c0,0,0,0,0.1-0.1c0,0,0.1,0,0.2,0h0.7c0,0,0.1,0,0.1-0.1c0,0,0.1-0.1,0.1-0.1v-1.1
		c0,0,0-0.1-0.1-0.1c0,0-0.1-0.1-0.1-0.1h-0.7c-0.1,0-0.1,0-0.2-0.1c0,0-0.1-0.1-0.1-0.1c0,0-0.1-0.1-0.1-0.3v-1.7
		c0-0.1,0-0.2,0.1-0.2c0.1-0.1,0.1-0.1,0.2-0.1h0.1c0.1,0,0.2,0,0.2,0.1s0.1,0.1,0.1,0.2v0.9c0,0.1,0.1,0.2,0.2,0.3l1.3,0.3
		c0.1,0,0.2,0,0.2-0.1v-1.5c0-0.2,0-0.5-0.1-0.7c-0.1-0.2-0.2-0.4-0.4-0.6c-0.2-0.2-0.4-0.3-0.6-0.4c-0.2-0.1-0.5-0.1-0.7-0.1h-0.5
		c-0.2,0-0.5,0-0.7,0.1c-0.2,0.1-0.4,0.2-0.6,0.4c-0.2,0.2-0.3,0.4-0.4,0.6c-0.1,0.2-0.1,0.5-0.1,0.7v1.6c0,0.1,0,0.1,0,0.2
		s0,0.1,0,0.2c0,0.2,0.1,0.4,0.3,0.6c0.1,0.1,0.3,0.2,0.4,0.3c-0.2,0.1-0.3,0.1-0.4,0.2c-0.1,0-0.1,0.1-0.1,0.2
		c0,0.1-0.1,0.1-0.1,0.2c0,0.2-0.1,0.4-0.1,0.6v2.5c0,0.2,0,0.5,0.1,0.7c0.1,0.2,0.2,0.4,0.4,0.6c0.2,0.2,0.4,0.3,0.6,0.4
		c0.2,0.1,0.5,0.1,0.7,0.1h0.5c0.2,0,0.5,0,0.7-0.1c0.2-0.1,0.4-0.2,0.6-0.4c0.2-0.2,0.3-0.4,0.4-0.6c0.1-0.2,0.1-0.5,0.1-0.7v-1.2
		l0.5,0.1c0.1,0,0.1,0,0.1-0.1v-0.5C390,120.7,390,120.6,389.9,120.6 M372.7,113.9h-0.5c-0.2,0-0.5,0-0.7,0.1
		c-0.2,0.1-0.4,0.2-0.6,0.4c-0.2,0.2-0.3,0.4-0.4,0.6c-0.1,0.2-0.1,0.5-0.1,0.7v6.6c0,0.2,0,0.5,0.1,0.7c0.1,0.2,0.2,0.4,0.4,0.6
		c0.2,0.2,0.4,0.3,0.6,0.4c0.2,0.1,0.5,0.1,0.7,0.1h0.5c0.2,0,0.5,0,0.7-0.1c0.2-0.1,0.4-0.2,0.6-0.4c0.2-0.2,0.3-0.4,0.4-0.6
		c0.1-0.2,0.1-0.5,0.1-0.7v-4.1c0-0.1-0.1-0.2-0.2-0.2h-1.9v1.6h0.4v2.6c0,0.1,0,0.2-0.1,0.2c-0.1,0.1-0.1,0.1-0.2,0.1h-0.1
		c-0.1,0-0.2,0-0.2-0.1c-0.1-0.1-0.1-0.1-0.1-0.2v-6.5c0-0.1,0-0.2,0.1-0.2s0.1-0.1,0.2-0.1h0.1c0.1,0,0.2,0,0.2,0.1
		s0.1,0.1,0.1,0.2v1c0,0.1,0.1,0.2,0.2,0.1l1.3-0.5c0.1,0,0.2-0.1,0.2-0.3v-0.5c0-0.2,0-0.5-0.1-0.7c-0.1-0.2-0.2-0.4-0.4-0.6
		c-0.2-0.2-0.4-0.3-0.6-0.4C373.2,114,372.9,113.9,372.7,113.9 M365.1,114h-1.3c-0.1,0-0.2,0.1-0.2,0.2v4.6l-1.5-4.6
		c0,0-0.1-0.1-0.1-0.1c-0.1,0-0.1-0.1-0.2-0.1h-0.9c-0.1,0-0.2,0.1-0.2,0.2v9.7c0,0.1,0.1,0.2,0.2,0.2h1.3c0.1,0,0.2-0.1,0.2-0.2
		v-4.7l1.5,4.8c0,0,0.1,0.1,0.1,0.1c0.1,0,0.1,0.1,0.2,0.1h0.9c0.1,0,0.2-0.1,0.2-0.2v-9.7C365.3,114.1,365.2,114,365.1,114
		 M355.5,114.2c0-0.1-0.1-0.2-0.2-0.2H354c-0.1,0-0.2,0.1-0.2,0.2v9.7c0,0.1,0.1,0.2,0.2,0.2h1.3c0.1,0,0.2-0.1,0.2-0.2V114.2z
		 M347.2,117.6c0,0.1,0,0.2-0.1,0.2c-0.1,0.1-0.1,0.1-0.2,0.1h-0.5v-2.4h0.5c0.1,0,0.2,0,0.2,0.1c0.1,0.1,0.1,0.1,0.1,0.2V117.6z
		 M347.2,122.2c0,0.1,0,0.2-0.1,0.2s-0.1,0.1-0.2,0.1h-0.5v-3h0.5c0.1,0,0.2,0,0.2,0.1c0.1,0.1,0.1,0.1,0.1,0.2V122.2z M348,118.7
		c0.2-0.1,0.4-0.2,0.5-0.4c0.3-0.3,0.4-0.7,0.4-1.1v-1.4c0-0.2,0-0.5-0.1-0.7c-0.1-0.2-0.2-0.4-0.4-0.6c-0.2-0.2-0.4-0.3-0.6-0.4
		c-0.2-0.1-0.5-0.1-0.7-0.1h-2.2c-0.1,0-0.2,0.1-0.2,0.2v9.7c0,0.1,0.1,0.2,0.2,0.2h2.2c0.2,0,0.5,0,0.7-0.1
		c0.2-0.1,0.4-0.2,0.6-0.4c0.2-0.2,0.3-0.4,0.4-0.6c0.1-0.2,0.1-0.5,0.1-0.7v-2.1c0-0.2,0-0.4-0.1-0.6c-0.1-0.2-0.2-0.3-0.3-0.5
		C348.3,118.9,348.2,118.8,348,118.7 M339.3,114h-1.2c-0.1,0-0.1,0-0.2,0.1s-0.1,0.1-0.1,0.1l-1.1,5.1l-1.1-5.1c0,0-0.1-0.1-0.1-0.1
		s-0.1-0.1-0.2-0.1h-1.2c-0.1,0-0.2,0.1-0.2,0.2v9.7c0,0.1,0.1,0.2,0.2,0.2h1.4c0.1,0,0.2-0.1,0.2-0.2v-4.5l0.9,3.7
		c0,0,0,0.1,0.1,0.1c0,0,0.1,0,0.1-0.1l0.9-3.7v4.5c0,0.1,0.1,0.2,0.2,0.2h1.4c0.1,0,0.2-0.1,0.2-0.2v-9.7
		C339.5,114.1,339.5,114,339.3,114 M328.8,114.2c0-0.1-0.1-0.2-0.2-0.2h-1.3c-0.1,0-0.2,0.1-0.2,0.2v9.7c0,0.1,0.1,0.2,0.2,0.2h1.3
		c0.1,0,0.2-0.1,0.2-0.2V114.2z M322,122.4h-1.8v-8.2c0-0.1-0.1-0.2-0.2-0.2h-1.3c-0.1,0-0.2,0.1-0.2,0.2v9.7c0,0.1,0.1,0.2,0.2,0.2
		h1.3h0h0h1.9c0.1,0,0.2-0.1,0.2-0.2v-1.3C322.2,122.5,322.1,122.4,322,122.4 M311.7,113.9h-0.5c-0.2,0-0.5,0-0.7,0.1
		c-0.2,0.1-0.4,0.2-0.6,0.4c-0.2,0.2-0.3,0.4-0.4,0.6c-0.1,0.2-0.1,0.5-0.1,0.7v6.6c0,0.2,0,0.5,0.1,0.7c0.1,0.2,0.2,0.4,0.4,0.6
		c0.2,0.2,0.4,0.3,0.6,0.4c0.2,0.1,0.5,0.1,0.7,0.1h0.5c0.2,0,0.5,0,0.7-0.1c0.2-0.1,0.4-0.2,0.6-0.4c0.2-0.2,0.3-0.4,0.4-0.6
		c0.1-0.2,0.1-0.5,0.1-0.7v-1.8c0-0.1-0.1-0.2-0.2-0.3l-1.3-0.2c-0.1,0-0.2,0-0.2,0.1v2c0,0.1,0,0.2-0.1,0.2
		c-0.1,0.1-0.1,0.1-0.2,0.1h-0.1c-0.1,0-0.2,0-0.2-0.1c-0.1-0.1-0.1-0.1-0.1-0.2v-6.5c0-0.1,0-0.2,0.1-0.2s0.1-0.1,0.2-0.1h0.1
		c0.1,0,0.2,0,0.2,0.1c0.1,0.1,0.1,0.1,0.1,0.2v1.4c0,0.1,0.1,0.2,0.2,0.1l1.3-0.2c0.1,0,0.2-0.1,0.2-0.3v-1.2c0-0.2,0-0.5-0.1-0.7
		c-0.1-0.2-0.2-0.4-0.4-0.6c-0.2-0.2-0.4-0.3-0.6-0.4C312.2,114,311.9,113.9,311.7,113.9 M298.6,122.4h-1.8v-8.2
		c0-0.1-0.1-0.2-0.2-0.2h-1.3c-0.1,0-0.2,0.1-0.2,0.2v9.7c0,0.1,0.1,0.2,0.2,0.2h1.3h0h0h1.9c0.1,0,0.2-0.1,0.2-0.2v-1.3
		C298.8,122.5,298.7,122.4,298.6,122.4 M287.6,120.7l0.3-3.9h0.1l0.3,3.9H287.6z M289.1,114.2c0-0.1-0.1-0.2-0.2-0.2H287
		c-0.1,0-0.2,0.1-0.2,0.2l-1.1,9.7c0,0.1,0,0.2,0.2,0.2h1.3c0.1,0,0.2-0.1,0.2-0.2l0.1-1.6h0.9l0.1,1.6c0,0.1,0.1,0.2,0.2,0.2h1.3
		c0.1,0,0.2-0.1,0.2-0.2L289.1,114.2z M280.9,114.2c0-0.1-0.1-0.2-0.2-0.2h-1.3c-0.1,0-0.2,0.1-0.2,0.2v9.7c0,0.1,0.1,0.2,0.2,0.2
		h1.3c0.1,0,0.2-0.1,0.2-0.2V114.2z M271.6,115.5h0.5c0.1,0,0.2,0,0.2,0.1c0.1,0.1,0.1,0.1,0.1,0.2v2.2c0,0.1,0,0.2-0.1,0.2
		c-0.1,0.1-0.1,0.1-0.2,0.1h-0.5V115.5z M273.1,119.8c0.3-0.2,0.5-0.4,0.7-0.7c0.2-0.3,0.3-0.6,0.3-1v-2.3c0-0.2,0-0.5-0.1-0.7
		c-0.1-0.2-0.2-0.4-0.4-0.6c-0.2-0.2-0.4-0.3-0.6-0.4c-0.2-0.1-0.5-0.1-0.7-0.1h-2.2c-0.1,0-0.2,0.1-0.2,0.2v9.7
		c0,0.1,0.1,0.2,0.2,0.2h1.3c0.1,0,0.2,0,0.2-0.1l0,0.1v-3.7l1,3.5c0,0.1,0.1,0.1,0.1,0.1s0.1,0.1,0.2,0.1h1.3
		c0.1,0,0.2-0.1,0.1-0.2L273.1,119.8z M264.8,114h-3.7c-0.1,0-0.2,0.1-0.2,0.2v1.3c0,0.1,0.1,0.2,0.2,0.2h1v8.2c0,0.1,0,0.1,0.1,0.1
		s0.1,0.1,0.1,0.1h1.3c0.1,0,0.2-0.1,0.2-0.2v-8.2h1c0.1,0,0.2-0.1,0.2-0.2v-1.3C265,114.1,264.9,114,264.8,114 M254.6,113.9h-0.5
		c-0.2,0-0.5,0-0.7,0.1c-0.2,0.1-0.4,0.2-0.6,0.4c-0.2,0.2-0.3,0.4-0.4,0.6c-0.1,0.2-0.1,0.5-0.1,0.7v1.7c0,0.2,0,0.4,0.1,0.5
		c0.1,0.1,0.2,0.3,0.3,0.4l1.9,1.4c0.1,0.1,0.1,0.2,0.2,0.3s0,0.2,0.1,0.3v1.9c0,0.1,0,0.2-0.1,0.2c-0.1,0.1-0.1,0.1-0.2,0.1h-0.1
		c-0.1,0-0.2,0-0.2-0.1c-0.1-0.1-0.1-0.1-0.1-0.2v-1.8c0-0.1-0.1-0.2-0.2-0.1l-1.3,0.3c-0.1,0-0.2,0.1-0.2,0.3v1.4
		c0,0.2,0,0.5,0.1,0.7c0.1,0.2,0.2,0.4,0.4,0.6c0.2,0.2,0.4,0.3,0.6,0.4c0.2,0.1,0.5,0.1,0.7,0.1h0.5c0.2,0,0.5,0,0.7-0.1
		s0.4-0.2,0.6-0.4c0.2-0.2,0.3-0.4,0.4-0.6c0.1-0.2,0.1-0.5,0.1-0.7v-2.5c0-0.2-0.1-0.3-0.1-0.5s-0.1-0.3-0.3-0.4l-1.9-1.4
		c-0.1-0.1-0.1-0.2-0.2-0.2s0-0.2-0.1-0.3v-1.3c0-0.1,0-0.2,0.1-0.2c0.1-0.1,0.1-0.1,0.2-0.1h0.1c0.1,0,0.2,0,0.2,0.1
		s0.1,0.1,0.1,0.2v0.9c0,0.1,0.1,0.2,0.2,0.1l1.3-0.3c0.1,0,0.2-0.1,0.2-0.3v-0.5c0-0.2,0-0.5-0.1-0.7c-0.1-0.2-0.2-0.4-0.4-0.6
		c-0.2-0.2-0.4-0.3-0.6-0.4C255.1,114,254.9,113.9,254.6,113.9 M247.2,114H246c-0.1,0-0.2,0.1-0.2,0.2v8.1c0,0.1,0,0.2-0.1,0.2
		c-0.1,0.1-0.1,0.1-0.2,0.1h-0.1c-0.1,0-0.2,0-0.2-0.1c-0.1-0.1-0.1-0.1-0.1-0.2v-8.1c0-0.1-0.1-0.2-0.2-0.2h-1.3
		c-0.1,0-0.2,0.1-0.2,0.2v8.2c0,0.2,0,0.5,0.1,0.7c0.1,0.2,0.2,0.4,0.4,0.6c0.2,0.2,0.4,0.3,0.6,0.4s0.5,0.1,0.7,0.1h0.5
		c0.2,0,0.5,0,0.7-0.1s0.4-0.2,0.6-0.4c0.2-0.2,0.3-0.4,0.4-0.6c0.1-0.2,0.1-0.5,0.1-0.7v-8.2C247.4,114.1,247.4,114,247.2,114
		 M236.7,122.2c0,0.1,0,0.2-0.1,0.2s-0.1,0.1-0.2,0.1h-0.5v-7h0.5c0.1,0,0.2,0,0.2,0.1c0.1,0.1,0.1,0.1,0.1,0.2V122.2z M234.4,114
		c-0.1,0-0.2,0.1-0.2,0.2v9.7c0,0.1,0.1,0.2,0.2,0.2h2.2c0.2,0,0.5,0,0.7-0.1c0.2-0.1,0.4-0.2,0.6-0.4c0.2-0.2,0.3-0.4,0.4-0.6
		c0.1-0.2,0.1-0.5,0.1-0.7v-6.4c0-0.2,0-0.5-0.1-0.7s-0.2-0.4-0.4-0.6c-0.2-0.2-0.4-0.3-0.6-0.4c-0.2-0.1-0.5-0.1-0.7-0.1H234.4z
		 M228.8,114h-1.3c-0.1,0-0.2,0.1-0.2,0.2v4.6l-1.5-4.6c0,0-0.1-0.1-0.1-0.1c-0.1,0-0.1-0.1-0.2-0.1h-0.9c-0.1,0-0.2,0.1-0.2,0.2
		v9.7c0,0.1,0.1,0.2,0.2,0.2h1.3c0.1,0,0.2-0.1,0.2-0.2v-4.7l1.5,4.8c0,0,0.1,0.1,0.1,0.1c0.1,0,0.1,0.1,0.2,0.1h0.9
		c0.1,0,0.2-0.1,0.2-0.2v-9.7C229,114.1,229,114,228.8,114 M219.3,114.2c0-0.1-0.1-0.2-0.2-0.2h-1.3c-0.1,0-0.2,0.1-0.2,0.2v9.7
		c0,0.1,0.1,0.2,0.2,0.2h1.3c0.1,0,0.2-0.1,0.2-0.2V114.2z"/>
</g>
<path fill="#99042E" d="M84.1,104.1c-0.3-0.3,0.3-0.9,0.8-1.2c0.4-0.3,1.6-0.4,1.9,0l44.1,54c0.3,0.3,0.6,1.1,0.2,1.4
	c-0.4,0.3-0.8,0.2-1.1-0.2L84.1,104.1z M82.6,70l-0.2-0.2c-0.7-0.6-0.8-1.7-0.4-2.5l33.2-58.5c0.4-0.8,1.2-1.4,1.7-1.4
	c0.5,0,0.5,0.6,0.1,1.4L84.6,69.7C84.2,70.4,83.3,70.6,82.6,70 M79.7,87.9c0,0-0.4,2-1.1,1.9l-0.3,0c0,0-7.2-1.1-7-4.4
	c0,0-0.1-2.6,6.6-0.7C77.8,84.7,80.3,85.3,79.7,87.9 M105.6,74.1c0-0.9,0.1-1.7,0.1-2.6c0-0.5,0.1-1.1,0.1-1.6
	c0-0.3,0.1-0.6,0.2-0.8c0-0.1,0.2-0.2,0.4-0.2c0.1,0,0.3,0,0.4,0c0,0,0.1,0,0.1,0c0.1,0.2,0.3,0.2,0.4,0.3c0.2,0.1,0.2,0.1,0.2,0.3
	c0,0.1,0,0.2,0,0.4c0,0.1,0,0.3,0.1,0.4c0.1,0.1,0.1,0.2,0.1,0.3c-0.1,0.5-0.3,1-0.4,1.5c0,0.1-0.1,0.2-0.2,0.3
	c-0.1,0.1-0.2,0.2-0.2,0.4c0,0,0,0.1-0.1,0.1c-0.2,0.1-0.2,0.2-0.2,0.4c0,0.1-0.1,0.2-0.1,0.3c-0.1,0.1-0.2,0.2-0.2,0.3
	c-0.3,0.4-0.5,0.8-0.7,1.2c0,0.1-0.1,0.2-0.2,0.3C105.5,74.8,105.5,74.4,105.6,74.1 M107.5,63.8c0.2,0.1,0.2,0.1,0.1,0.3
	c-0.1,0.1-0.1,0.1,0,0.2c0.1,0.1,0.1,0.1,0.2,0.1c0,0,0.1,0,0.1-0.1c0.1,0,0.1,0,0.1,0.1c0,0.2-0.2,0.3-0.4,0.4
	c-0.2,0-0.2,0-0.1,0.2c0,0.1,0,0.1-0.1,0.1c-0.1,0-0.3,0-0.5,0C107.2,64.7,107.4,64.3,107.5,63.8 M109.2,59.5c0,0.1,0,0.2,0,0.3
	c-0.1,0.5-0.1,1.1-0.1,1.6c0,0.3-0.1,0.6-0.2,1c0,0.1-0.1,0.1-0.1,0.1c0,0,0,0-0.1,0c-0.3-0.1-0.5,0.1-0.7,0.3c0,0,0,0-0.1,0
	C108.3,61.7,108.7,60.6,109.2,59.5 M109.4,69.7c0.1,0.1,0.2,0.1,0.3,0.1c0.1,0,0.2,0,0.3,0.1c0.1,0.1,0.2,0.1,0.4,0.1
	c0.1,0,0.2,0.1,0.2,0.2c0,0.1,0.1,0.1,0.2,0.2c0.1,0.1,0.1,0.1,0.1,0.2c-0.4,0.6-0.6,1.2-1,1.9c0,0,0,0,0,0
	c-0.1,0.2-0.2,0.5-0.4,0.7c-0.2,0.2-0.4,0.3-0.6,0.4c-0.2,0.1-0.3,0.3-0.5,0.4c-0.1-0.2,0-0.4,0-0.5c0.2-0.3,0.2-0.7,0.3-1
	c0-0.1,0-0.3-0.1-0.4c0,0,0-0.1,0-0.1c0-0.2,0-0.4,0.1-0.6c0.1-0.2,0.1-0.4,0.1-0.6c0-0.2,0-0.4,0.1-0.6c0.1-0.1,0.1-0.2,0.1-0.3
	C109,69.6,109.2,69.5,109.4,69.7 M110.8,51.8c0.1,0.1,0.1,0.3,0,0.5c0,0.1,0.1,0.3,0,0.4V51.8z M111.2,58.7c0.1,0.3,0,0.5-0.3,0.6
	c-0.1,0-0.1,0-0.2-0.1c0-0.2,0-0.4,0-0.6C111,59,111.1,59,111.2,58.7 M111,53.8c0-0.1,0-0.2,0.1-0.2c0.1,0,0.1,0.1,0.1,0.2
	c0,0.1,0,0.3-0.2,0.4C111,54.1,111.1,54,111,53.8C111,53.9,111,53.8,111,53.8 M110.9,72.4c-0.1-0.2,0-0.5,0-0.7c0,0.1,0,0.2,0,0.3
	c0,0,0,0.1,0,0.1C111.2,72.2,111,72.3,110.9,72.4 M110.4,73.1c0,0.1,0,0.1-0.1,0.1c-0.1,0-0.1-0.1,0-0.1c0.1-0.1,0.1-0.3,0.2-0.4
	c0,0,0,0,0.1,0C110.5,72.8,110.5,72.9,110.4,73.1 M109.1,76c0-0.2,0.1-0.5,0-0.7c0,0,0-0.1,0-0.1c0.3-0.4,0.5-0.9,0.7-1.4
	c0.1-0.2,0.2-0.3,0.5-0.3C109.9,74.3,109.5,75.1,109.1,76 M108.6,75c0-0.4,0.1-0.7,0.4-0.9C109,74.3,108.8,74.7,108.6,75
	 M108.6,75.6c-0.1,0.4-0.2,0.8-0.4,1.1c0,0,0,0.1-0.1,0.1v-1.2c0-0.1,0-0.1,0-0.2c0,0,0-0.1,0.1-0.1c0.1,0,0.2,0,0.4,0
	c0,0,0.1,0,0,0.1C108.6,75.5,108.6,75.6,108.6,75.6 M107.8,69.9c0-0.2,0.1-0.4,0.2-0.6c0-0.1,0.1-0.1,0.2-0.1c0.1,0,0.1,0.1,0,0.1
	c0,0.1-0.1,0.2-0.1,0.3C108.1,69.9,108.1,69.9,107.8,69.9 M107.7,72.5C107.7,72.5,107.7,72.5,107.7,72.5c-0.1-0.2,0.1-0.7,0.4-1.1
	c0,0.2,0,0.4,0,0.6c0,0.1,0,0.1-0.1,0.1C107.8,72.1,107.8,72.3,107.7,72.5 M106.2,74.8c-0.1,0-0.1,0-0.2-0.1c-0.1-0.2,0-0.4,0.2-0.6
	c0,0.2,0,0.3,0,0.5C106.3,74.7,106.3,74.7,106.2,74.8 M111.7,56.1c0.1,0,0.2,0.1,0.2,0.2c0,0.1-0.1,0.2-0.2,0.2
	c-0.1,0-0.2-0.1-0.2-0.1C111.5,56.2,111.6,56.1,111.7,56.1 M188,137.5l-4.4,1.2c-0.1,0-0.2,0-0.3,0.1
	c-11.6,21.7-34.4,36.6-60.7,36.6c-2.5,0-5-0.1-7.4-0.4l-2.2-28.6c18.3,21,21.3,16.4,21.6,16.2c3.4-2.7-2.4-9.4-2.4-9.4l-26.4-34.2
	l-2.2-9.8c14.1,3.8,16.9-3,16.9-3c2.6-6-1.3-9.3-1.3-9.3c-4.8-4.3-9.9-7.2-14.7-9.2c0-0.2,0-0.5,0.1-0.7c0.1-1.6,0.3-3.2,0.4-4.8
	c0.1-1.5,0.2-3,0.3-4.5c0-0.3,0.1-0.6,0.2-0.9c0.1-0.3,0.2-0.5,0.3-0.8c0-0.1,0.1-0.2,0.1-0.2c0,0.1,0.1,0.1,0.1,0.1
	c0,0.2,0.1,0.3,0.3,0.4c0.1,0,0.1,0.1,0.2,0.1c0.1,0,0.1,0.1,0.1,0.1c0,0.1,0,0.1,0,0.2c0,0.3-0.1,0.6,0.1,0.9c0,0,0,0.1,0.1,0.1
	c0.1,0,0.3,0,0.4-0.1c0.1-0.1,0-0.2,0-0.3c-0.1-0.2-0.1-0.4-0.1-0.6c0-0.2,0-0.5-0.1-0.7c-0.1-0.3-0.2-0.7,0.1-1c0,0,0-0.1,0-0.1
	c0-0.1,0.1-0.2,0.2-0.2c0,0.3,0.1,0.6,0,0.9c0,0.1,0,0.2,0.1,0.2c0.1,0.1,0.1,0.2,0.1,0.3c0,0.3,0,0.6-0.2,0.9
	c0,0.1-0.1,0.1-0.1,0.2c-0.2,0.4-0.1,0.6,0.2,0.9c0,0,0,0,0.1,0c0.1,0,0.1,0.1,0.1,0.2c-0.1,0.2-0.1,0.3-0.2,0.5
	c-0.1,0.4-0.1,0.4,0.2,0.6c0,0,0,0,0.1,0c0.1,0.1,0.2,0,0.3-0.1c0.1-0.2,0.2-0.3,0.3-0.5c0.6-1,1-2.2,1.5-3.3c0.1-0.3,0.3-0.7,0.5-1
	c0.2-0.3,0.3-0.7,0.6-1c0.1-0.1,0.1-0.3,0.2-0.4c0.1-0.1,0.2-0.3,0.3-0.5c0.1-0.3,0.2-0.5,0.5-0.6c0.1-0.1,0.2-0.2,0.2-0.4
	c0-0.2,0.1-0.3,0.2-0.3c0.1,0,0.2,0,0.3,0c0.7,0.1,1.1-0.2,1.5-0.8c0.2-0.3,0.3-0.7,0.4-1c0.1-0.4,0.2-0.7,0.3-1
	c0.1-0.3,0.1-0.2,0.4-0.2c0.1,0,0.1,0,0.1-0.1c0-0.1,0-0.2,0-0.4c0-0.1,0-0.2,0.1-0.3c0.2-0.1,0.3-0.2,0.4-0.4
	c0-0.1,0.1-0.2,0.2-0.2c0.3-0.2,0.5-0.4,0.7-0.7c0.1-0.2,0.2-0.3,0.2-0.5c0-0.1,0-0.3,0.1-0.4c0.2-0.5,0.4-0.9,0.7-1.3
	c0.1-0.1,0.2-0.3,0.2-0.5c0-0.1,0-0.2,0.1-0.3c0.1,0,0.1,0.2,0.2,0.2c0.1,0,0.1-0.1,0.2-0.1c0.1,0,0.1,0,0.2,0c0.1,0,0.2,0,0.3,0
	c0.1,0,0.2,0,0.2,0.1c0.3,0.4,0.5,0.9,0.7,1.4c0.1,0.2,0.2,0.5,0.3,0.7c0.1,0.2,0.2,0.4,0.2,0.6c0.1,0.5,0.3,1,0.6,1.5
	c0.2,0.4,0.4,0.9,0.6,1.4c0.1,0.4,0.3,0.8,0.2,1.2c0,0,0,0.1,0,0.2c0,0.2,0.1,0.4,0.2,0.6c0,0.1,0,0.2,0,0.3c0,0.2,0,0.4,0,0.6
	c0.1,0.1,0,0.2-0.1,0.2c-0.1,0-0.1,0-0.2,0c-0.2-0.1-0.3,0-0.4,0.2c-0.1,0.2-0.1,0.2,0.1,0.3c0.1,0,0.1,0,0.2,0c0.1,0,0.2,0,0.3,0
	c0.2,0.1,0.3,0,0.4,0c0.2-0.1,0.4-0.2,0.6-0.2c0.1,0,0.1-0.1,0.2-0.2c0.1-0.2,0.1-0.4,0.2-0.6c0.1-0.1,0.1-0.2,0-0.3
	c-0.1-0.2-0.1-0.4-0.2-0.5c-0.1-0.3-0.3-0.7-0.4-1c-0.1-0.7-0.3-1.3-0.3-2c0-0.4-0.1-0.7-0.2-1.1c-0.1-0.6-0.2-1.1-0.5-1.6
	c0,0,0-0.1,0-0.1c0-0.3-0.1-0.6-0.4-0.9c-0.1-0.2-0.3-0.3-0.3-0.5c-0.1-0.3-0.2-0.6-0.2-0.9c-0.1-0.3-0.1-0.7-0.3-1
	c0-0.1-0.1-0.2-0.1-0.3c-0.1-0.7-0.2-1.4-0.5-2.1c-0.2-0.5-0.5-0.9-0.9-1.3c0,0-0.1-0.1-0.1-0.2c-0.1-0.3-0.2-0.5-0.4-0.6
	c-0.1-0.1-0.3-0.2-0.4-0.4c0,0-0.1-0.1-0.1-0.2c0.1-0.3,0-0.5-0.2-0.6c0,0-0.1-0.1-0.1-0.1c0-0.2-0.2-0.3-0.3-0.4
	c-0.1,0-0.2-0.1-0.3-0.1c-0.1,0-0.1-0.1-0.1-0.1c0-0.2-0.1-0.4,0.1-0.6c0.1-0.2,0.2-0.5,0.1-0.7c0-0.1,0-0.1,0.1-0.2
	c0.1-0.1,0.2-0.2,0.2-0.2c0.1-0.2,0.2-0.4,0-0.5c-0.1-0.1-0.1-0.2-0.2-0.3c0-0.1-0.1-0.3-0.1-0.4c-0.1-0.4-0.3-0.8-0.6-1.1
	c-0.3-0.3-0.7-0.5-1.1-0.6c-0.5-0.1-1,0-1.5,0.3c-1,0.6-1.3,1.4-1.3,2.5c0,0.3,0.1,0.7,0,1c0,0.3,0,0.4,0.3,0.5
	c0.3,0.1,0.5,0.3,0.6,0.6c0.1,0.3,0.3,0.5,0.5,0.7c0.1,0.1,0.1,0.2,0,0.3c0,0.1-0.1,0.1-0.1,0.2c-0.2,0.2-0.4,0.4-0.7,0.5
	c-0.5,0.3-0.7,0.7-1,1.1c-0.1,0.2-0.3,0.4-0.4,0.6c-0.1,0.1-0.1,0.1-0.2,0c-0.1-0.1-0.2-0.2-0.4-0.2c-0.1,0-0.2-0.1-0.2-0.3
	c0-0.4,0-0.8-0.1-1.3c0-0.1,0-0.2,0-0.3c0.1,0,0,0.2,0.2,0.2c0.2-0.1,0.3,0,0.5,0c0.3,0,0.4-0.3,0.3-0.6c-0.1-0.2-0.2-0.2-0.3-0.4
	c-0.1-0.1-0.2-0.1-0.2-0.3c0-0.3,0-0.6-0.2-0.9c0,0,0-0.1,0-0.2c0-0.1,0-0.1,0-0.2c-0.1-0.2-0.2-0.4,0.1-0.5c0.1,0,0-0.1,0-0.2
	c0-0.1,0-0.2,0.1-0.2c0.2-0.1,0.1-0.2,0-0.4c-0.1,0-0.1,0.1-0.1,0.1c0,0.1-0.1,0.1-0.1,0.1c-0.1,0-0.1-0.1-0.1-0.1
	c0-0.3-0.1-0.5,0-0.8c0-0.2,0-0.3,0-0.5c0-0.1,0-0.2-0.1-0.2c-0.1,0-0.1-0.1-0.1-0.2c0-0.4,0-0.8,0-1.2c0.1-0.5-0.1-1-0.1-1.6
	c0-0.1,0-4.6,0-9.7H111c3.8-0.7,7.7-1,11.7-1c18.3,0,34.9,7.2,47.2,18.8c1.3-1.4,2.8-2.7,4.4-3.8c1.2-0.8,2.5-1.5,3.8-2.1
	c-14.2-14.1-33.8-22.9-55.4-22.9c-2.2,0-4.4,0.1-6.5,0.3l-5.5,10.7h0v0l0,0.1c0,0,0,0,0,0c0,5.4,0,10.4,0,10.6
	c-0.1,1.3-0.1,2.7-0.1,4c0,0.2,0,0.2-0.2,0.3c-0.2,0-0.2,0.1-0.2,0.3c0,0.1,0.1,0.2,0.1,0.3c0.1,0.2,0.1,0.2-0.1,0.3
	c-0.2,0.1-0.3,0.4-0.5,0.5c0,0,0,0,0,0.1c0,0.2-0.1,0.4,0,0.6c0,0.1,0,0.1,0,0.2c0,0.2,0,0.4,0.2,0.6c0.1,0.1,0.1,0.2,0,0.3
	c-0.1,0.4-0.3,0.8-0.4,1.2c-0.4,0.9-0.7,1.9-1.1,2.8c-0.5,1.3-0.9,2.6-1.4,3.9c-0.1,0.3-0.3,0.4-0.6,0.4c-0.1,0-0.1,0-0.2,0
	c-0.2,0-0.3,0-0.5,0c-0.4,0.1-0.8,0.1-1.3,0.2c-0.4,0-0.8,0.1-1.1,0.1c-0.7,0.1-1.3,0.4-1.9,0.8c-0.2,0.1-0.3,0.3-0.4,0.4
	c-0.3,0.4-0.5,0.7-0.8,1c-0.1,0.1-0.2,0.2-0.2,0.3c-0.1,0.2-0.2,0.3-0.4,0.3c-0.3,0.1-0.5,0.3-0.8,0.5c-0.1,0.1-0.2,0.2-0.3,0.2
	c-0.4,0.2-0.7,0.5-0.9,0.8c-0.4,0.4-0.4,0.4-0.9,0.6c-0.1,0-0.2,0-0.3,0c-0.1,0-0.2,0.1-0.2,0.2c0,0.1-0.1,0.2-0.3,0.2
	c-0.1,0-0.2,0.1-0.3,0.1c-0.2,0-0.3,0-0.4,0.2c0,0-0.1,0-0.1,0c-0.1-0.1-0.2,0-0.2,0.1c0,0.1-0.1,0.1-0.2,0.1
	c-0.2,0.1-0.4,0.2-0.5,0.4c-0.1,0.1-0.2,0.1-0.2,0c-0.3,0-0.6-0.1-0.9-0.1c0,0-0.1,0-0.1,0c-0.2-0.1-0.5-0.2-0.7-0.3
	c-0.3-0.2-0.7-0.2-1,0c-0.2,0.1-0.3,0.3-0.3,0.5c0,0.2,0.1,0.3,0.2,0.4c0.6,0.7,1.3,1.2,2.1,1.6c0.1,0,0.2,0.1,0.3,0.1
	c0.2,0,0.4,0,0.5,0.1c0.1,0,0.2,0.1,0.2,0.3c0,0,0,0.1,0,0.1c0.1,0.1,0.3,0.3,0.4,0.4c0.3,0.2,0.7,0.4,1,0.5
	c0.3,0.1,0.5,0.1,0.6-0.2c0.1-0.2,0.2-0.4,0.3-0.6c0,0,0-0.1,0.1-0.1c0.1,0,0.2-0.1,0.3-0.1c0.2-0.2,0.5-0.4,0.8-0.5
	c0.1,0,0.2-0.1,0.2-0.2c0.2-0.2,0.4-0.4,0.6-0.6c0.1-0.1,0.2-0.2,0.3-0.2c0.2-0.1,0.5-0.2,0.7-0.3c0.2-0.1,0.4-0.2,0.5-0.4
	c0.1,0.1,0,0.1,0,0.1c-0.1,0.8-0.1,1.6-0.3,2.3c-0.1,0.3-0.1,0.6-0.1,1c0,0.1,0,0.2,0,0.3c0,0.1-0.1,0.3-0.1,0.4
	c0,0.3,0,0.3,0.2,0.4c0,0,0,0,0,0c-0.2,0.4-0.7,0.4-1,0.6c0,0,0,0,0,0c-0.3,0-0.6,0.1-0.8,0.1c-0.4,0-0.7,0.2-0.9,0.5
	c-0.2,0.4-0.1,0.8,0.3,0.9c0,0,0,0,0.1,0c0.8,0.2,1.6,0.2,2.4,0.1c0.2,0,0.4-0.1,0.6-0.2c0.2-0.1,0.4-0.1,0.6-0.2
	c0.1,0,0.2,0,0.2,0.1c0,0.1,0.1,0.1,0.2,0.1c0.4,0,0.9-0.1,1.3-0.1c0.1,0,0.3-0.1,0.4-0.1c0.2-0.1,0.3-0.2,0.3-0.5
	c-0.1-0.3,0-0.6-0.2-1c0-0.1,0-0.1,0-0.2c0-0.2,0-0.4,0-0.6c0-0.1,0-0.3,0-0.4c0-0.3,0.1-0.5,0-0.8c0-0.1,0-0.2,0-0.2
	c0.1-0.1,0.1-0.3,0.1-0.4c0-0.2,0-0.3,0.1-0.5c0.2-0.3,0.3-0.7,0.4-1.1c0.1-0.1,0.1-0.3,0-0.4c-0.1-0.3-0.1-0.5,0-0.8
	c0.2-0.5,0.4-1.1,0.6-1.6c0.1-0.2,0.2-0.4,0.1-0.6c0-0.2,0-0.4,0.2-0.5c0.1-0.1,0.2-0.1,0.2-0.2c0.2-0.2,0.4-0.4,0.5-0.6
	c0,0,0.1-0.1,0.1,0c0,0.1,0,0.1-0.1,0.2c0,0.1,0,0.2,0,0.3c0.1,0.1,0.1,0.2,0.1,0.3c-0.1,1-0.2,2-0.3,3c-0.1,1.3-0.2,2.6-0.3,3.9
	c0,0.3-0.1,0.5-0.2,0.7c0,0.1-0.1,0.2-0.1,0.3c0,0.1,0,0.1,0,0.2c0.2,0.1,0.1,0.2,0.1,0.3c-0.1,0.9-0.2,1.9-0.2,2.8
	c-0.1,1.2-0.2,2.3-0.2,3.5c-0.1,1-0.1,2-0.2,3C94,83.1,85.7,83,85.7,83c-2.7-0.5-0.5-6.9-0.5-6.9l33.1-64c3.6-6.3,0-9.5,0-9.5
	c-4.3-2.4-7.5,4-7.5,4l-36,54.8c-6.6,7.6-3.2,9.2-3.2,9.2c4.9,3.8,2.7,6.5,2.7,6.5v3.8c-8.7-0.5-7.3,7.8-7.3,7.8
	c-2.4,2.3-5.2-1.8-5.2-1.8c-3-3.6-6.5,0-6.5,0l-45,32l-2.8,1.8c-3.4,2.2-1.5,4.2-1.5,4.2c1.7,2.5,5.4,0.5,5.4,0.5l57-26.6
	c8.1-3.8,7.1,3.8,7.1,3.8c-4.9,7.6,1.6,9.2,1.6,9.2l9.2,9.2l-1.9,42.5c-17-11.5-28.7-30.4-30.2-52l-9.6,4.5
	c4.7,39,37.9,69.3,78.1,69.3c34.2,0,63.3-21.9,74.1-52.3c-0.5,0.4-1.1,0.9-1.7,1.3C192.9,135.8,190.5,136.9,188,137.5 M150.6,86
	l10.5-6.5c1-0.6,1.5-1.4,1.5-2.4v-3.6c0-2-0.4-3.7-1.2-5.2c-0.8-1.5-1.8-2.7-3.1-3.7c-1.3-0.9-2.9-1.5-4.6-1.8
	c-1.8-0.3-3.7-0.1-5.7,0.4l-4.4,1.2c-2,0.5-3.9,1.4-5.7,2.6c-1.8,1.2-3.3,2.7-4.6,4.3c-1.3,1.6-2.4,3.4-3.1,5.3
	c-0.8,1.9-1.2,3.9-1.2,5.8v52.1c0,2,0.4,3.7,1.2,5.2c0.8,1.5,1.8,2.7,3.1,3.7c1.3,0.9,2.9,1.5,4.6,1.8c1.8,0.3,3.7,0.1,5.7-0.4
	l4.4-1.2c2-0.5,3.9-1.4,5.7-2.6c1.8-1.2,3.3-2.7,4.6-4.3c1.3-1.6,2.4-3.4,3.1-5.3c0.8-1.9,1.2-3.9,1.2-5.8V93.6
	c0-1.1-0.5-1.4-1.6-1.1l-15.2,4.1v12.9l3.2-0.9v20.1c0,0.8-0.3,1.5-0.8,2.1c-0.5,0.7-1.2,1.1-2,1.3l-0.9,0.2c-0.8,0.2-1.4,0.1-2-0.3
	c-0.5-0.4-0.8-0.9-0.8-1.7v-51c0-0.8,0.3-1.5,0.8-2.1c0.5-0.7,1.2-1.1,2-1.3l0.9-0.2c0.8-0.2,1.4-0.1,2,0.3c0.5,0.4,0.8,0.9,0.8,1.7
	v7.7C149.1,86.3,149.6,86.6,150.6,86 M189.4,75.3l10.5-5.5c1-0.6,1.5-1.4,1.5-2.4V63c0-2-0.4-3.7-1.2-5.2c-0.8-1.5-1.8-2.7-3.1-3.7
	c-1.3-0.9-2.9-1.5-4.6-1.8c-1.8-0.3-3.7-0.1-5.7,0.4l-4.4,1.2c-2,0.5-3.9,1.4-5.7,2.6c-1.8,1.2-3.3,2.7-4.6,4.3
	c-1.3,1.6-2.4,3.4-3.1,5.3c-0.8,1.9-1.2,3.9-1.2,5.8v13.5c0,1.7,0.2,3.1,0.8,4c0.5,0.9,1.3,1.7,2.5,2.5l14.9,7.2
	c0.7,0.4,1.2,1,1.4,1.7c0.2,0.7,0.4,1.5,0.5,2.5v14.9c0,0.8-0.3,1.5-0.8,2.1c-0.5,0.7-1.2,1.1-2,1.3l-0.9,0.2
	c-0.8,0.2-1.4,0.1-2-0.3c-0.5-0.4-0.8-0.9-0.8-1.7V106c0-1.1-0.5-1.3-1.5-0.7l-10.5,5.5c-1,0.6-1.5,1.4-1.5,2.4v10.8
	c0,2,0.4,3.7,1.2,5.2c0.8,1.5,1.8,2.7,3.1,3.7c1.3,0.9,2.9,1.5,4.6,1.8c1.8,0.3,3.7,0.1,5.7-0.4l4.4-1.2c2-0.5,3.9-1.4,5.7-2.6
	c1.8-1.2,3.3-2.7,4.6-4.3c1.3-1.6,2.4-3.4,3.1-5.3c0.8-1.9,1.2-3.9,1.2-5.8V95.7c-0.2-1.3-0.4-2.5-0.8-3.5c-0.3-1-1.1-1.9-2.4-2.6
	l-15.2-7c-0.6-0.4-1-0.9-1.3-1.5c-0.2-0.5-0.4-1.2-0.5-2V69c0-0.8,0.3-1.5,0.8-2.1c0.5-0.7,1.2-1.1,2-1.3l0.9-0.2
	c0.8-0.2,1.4-0.1,2,0.3c0.5,0.4,0.8,0.9,0.8,1.7v7.3C187.9,75.6,188.4,75.8,189.4,75.3"/>
</svg>
